<svg xmlns="http://www.w3.org/2000/svg">
<symbol id="dc-icon-workspace" viewBox="0 0 24 24" fill="none" stroke="currentColor" stroke-width="1.75" stroke-linecap="round" stroke-linejoin="round"><rect x="3.25" y="3.75" width="17.5" height="16.5" rx="3"/><path d="M9 4v16M9 9.25h11.25"/></symbol>
<symbol id="dc-icon-folder" viewBox="0 0 24 24" fill="none" stroke="currentColor" stroke-width="1.75" stroke-linecap="round" stroke-linejoin="round"><path d="M3.25 8V6.75A2 2 0 0 1 5.25 4.75h4.2l2.1 2.5h7.2a2 2 0 0 1 2 2v8a2 2 0 0 1-2 2H5.25a2 2 0 0 1-2-2V8Z"/><path d="M3.5 9.75h17"/></symbol>
<symbol id="dc-icon-folder-tree" viewBox="0 0 24 24" fill="none" stroke="currentColor" stroke-width="1.75" stroke-linecap="round" stroke-linejoin="round"><path d="M3.75 4.25v13.5a1.5 1.5 0 0 0 1.5 1.5H9M3.75 7H9"/><path d="M10 4.25h3.25L15 6h5.25v4.25H10v-6ZM10 15.25h3.25L15 17h5.25v4.25H10v-6Z"/></symbol>
<symbol id="dc-icon-file" viewBox="0 0 24 24" fill="none" stroke="currentColor" stroke-width="1.75" stroke-linecap="round" stroke-linejoin="round"><path d="M13.5 3.25H6.75a2 2 0 0 0-2 2v13.5a2 2 0 0 0 2 2h10.5a2 2 0 0 0 2-2V9L13.5 3.25Z"/><path d="M13.25 3.5v5.75H19M8.5 13h7M8.5 16.5h4.75"/></symbol>
<symbol id="dc-icon-tabs" viewBox="0 0 24 24" fill="none" stroke="currentColor" stroke-width="1.75" stroke-linecap="round" stroke-linejoin="round"><path d="M3.25 15.5V5.75a2.5 2.5 0 0 1 2.5-2.5H15.5"/><rect x="7" y="7" width="13.75" height="13.75" rx="2.5"/></symbol>
<symbol id="dc-icon-code-editor" viewBox="0 0 24 24" fill="none" stroke="currentColor" stroke-width="1.75" stroke-linecap="round" stroke-linejoin="round"><path d="m7.25 6.75-5 5.25 5 5.25m9.5-10.5 5 5.25-5 5.25M13.75 4.75l-3.5 14.5"/></symbol>
<symbol id="dc-icon-terminal" viewBox="0 0 24 24" fill="none" stroke="currentColor" stroke-width="1.75" stroke-linecap="round" stroke-linejoin="round"><rect x="3.25" y="4.25" width="17.5" height="15.5" rx="3"/><path d="m7.5 8.75 3.25 3.25-3.25 3.25M13.5 15.25h3.5"/></symbol>
<symbol id="dc-icon-ai-agent" viewBox="0 0 24 24" fill="none" stroke="currentColor" stroke-width="1.75" stroke-linecap="round" stroke-linejoin="round"><path d="M10 3.5c.9 5.1 2.4 6.6 7.5 7.5-5.1.9-6.6 2.4-7.5 7.5C9.1 13.4 7.6 11.9 2.5 11c5.1-.9 6.6-2.4 7.5-7.5Z"/><path d="M18.5 3v4M16.5 5h4M19 16v5M16.5 18.5h5"/></symbol>
<symbol id="dc-icon-ai-agent-16" viewBox="0 0 24 24" fill="none" stroke="currentColor" stroke-width="2" stroke-linecap="round" stroke-linejoin="round"><path d="M10 3.5c.9 5.1 2.4 6.6 7.5 7.5-5.1.9-6.6 2.4-7.5 7.5C9.1 13.4 7.6 11.9 2.5 11c5.1-.9 6.6-2.4 7.5-7.5Z"/><path d="M19 15.5v5M16.5 18h5"/></symbol>
<symbol id="dc-icon-browser" viewBox="0 0 24 24" fill="none" stroke="currentColor" stroke-width="1.75" stroke-linecap="round" stroke-linejoin="round"><circle cx="12" cy="12" r="8.75"/><ellipse cx="12" cy="12" rx="3.75" ry="8.75"/><path d="M3.5 12h17"/></symbol>
<symbol id="dc-icon-settings" viewBox="0 0 24 24" fill="none" stroke="currentColor" stroke-width="1.75" stroke-linecap="round" stroke-linejoin="round"><path d="m9.5 3.25-.65 2.5-2.2 1.3-2.5-.65-2 3.45 1.85 1.8v2.7l-1.85 1.8 2 3.45 2.5-.65 2.2 1.3.65 2.5h5l.65-2.5 2.2-1.3 2.5.65 2-3.45-1.85-1.8v-2.7l1.85-1.8-2-3.45-2.5.65-2.2-1.3-.65-2.5h-5Z" transform="translate(1.2 .3) scale(.9)"/><circle cx="12" cy="12" r="3.25"/></symbol>
<symbol id="dc-icon-search" viewBox="0 0 24 24" fill="none" stroke="currentColor" stroke-width="1.75" stroke-linecap="round" stroke-linejoin="round"><circle cx="10.5" cy="10.5" r="6.75"/><path d="m15.5 15.5 4.75 4.75"/></symbol>
<symbol id="dc-icon-kernel" viewBox="0 0 24 24" fill="none" stroke="currentColor" stroke-width="1.75" stroke-linecap="round" stroke-linejoin="round"><rect x="6" y="6" width="12" height="12" rx="2.5"/><rect x="9.25" y="9.25" width="5.5" height="5.5" rx="1"/><path d="M9.5 3v3M14.5 3v3M9.5 18v3M14.5 18v3M3 9.5h3M3 14.5h3M18 9.5h3M18 14.5h3"/></symbol>
<symbol id="dc-icon-kernel-16" viewBox="0 0 24 24" fill="none" stroke="currentColor" stroke-width="2" stroke-linecap="round" stroke-linejoin="round"><rect x="6" y="6" width="12" height="12" rx="2.5"/><path d="M9.5 3v3M14.5 3v3M9.5 18v3M14.5 18v3M3 9.5h3M3 14.5h3M18 9.5h3M18 14.5h3"/><rect x="10" y="10" width="4" height="4" rx=".75" fill="currentColor" stroke="none"/></symbol>
<symbol id="dc-icon-workflow-task" viewBox="0 0 24 24" fill="none" stroke="currentColor" stroke-width="1.75" stroke-linecap="round" stroke-linejoin="round"><circle cx="6" cy="5.5" r="2.25"/><path d="M6 7.75v7a3.5 3.5 0 0 0 3.5 3.5H12M8.5 5.5H16a2 2 0 0 1 2 2v3"/><circle cx="17.5" cy="17.5" r="4"/><path d="m15.75 17.5 1.25 1.25 2.25-2.5"/></symbol>
<symbol id="dc-icon-run" viewBox="0 0 24 24" fill="none" stroke="currentColor" stroke-width="1.75" stroke-linecap="round" stroke-linejoin="round"><path d="M7.25 4.75 19 12 7.25 19.25V4.75Z"/></symbol>
<symbol id="dc-icon-stop" viewBox="0 0 24 24" fill="none" stroke="currentColor" stroke-width="1.75" stroke-linecap="round" stroke-linejoin="round"><rect x="5" y="5" width="14" height="14" rx="2.75"/></symbol>
<symbol id="dc-icon-refresh" viewBox="0 0 24 24" fill="none" stroke="currentColor" stroke-width="1.75" stroke-linecap="round" stroke-linejoin="round"><path d="M20 9a8.25 8.25 0 0 0-14-3L3.5 8.5M3.5 4.25V8.5h4.25M4 15a8.25 8.25 0 0 0 14 3l2.5-2.5M20.5 19.75V15.5h-4.25"/></symbol>
<symbol id="dc-icon-external-link" viewBox="0 0 24 24" fill="none" stroke="currentColor" stroke-width="1.75" stroke-linecap="round" stroke-linejoin="round"><path d="M10.5 4.5H6A2.5 2.5 0 0 0 3.5 7v11A2.5 2.5 0 0 0 6 20.5h11a2.5 2.5 0 0 0 2.5-2.5v-4.5M14 3.5h6.5V10M20 4 10 14"/></symbol>
<symbol id="dc-icon-more-horizontal" viewBox="0 0 24 24" fill="none" stroke="currentColor" stroke-width="1.75" stroke-linecap="round" stroke-linejoin="round"><g fill="currentColor" stroke="none"><circle cx="5" cy="12" r="1.6"/><circle cx="12" cy="12" r="1.6"/><circle cx="19" cy="12" r="1.6"/></g></symbol>
<symbol id="dc-icon-close" viewBox="0 0 24 24" fill="none" stroke="currentColor" stroke-width="1.75" stroke-linecap="round" stroke-linejoin="round"><path d="m6.5 6.5 11 11m0-11-11 11"/></symbol>
<symbol id="dc-icon-chevron-right" viewBox="0 0 24 24" fill="none" stroke="currentColor" stroke-width="1.75" stroke-linecap="round" stroke-linejoin="round"><path d="m9 5.5 6.5 6.5L9 18.5"/></symbol>
<symbol id="dc-icon-success" viewBox="0 0 24 24" fill="none" stroke="currentColor" stroke-width="1.75" stroke-linecap="round" stroke-linejoin="round"><circle cx="12" cy="12" r="8.75"/><path d="m7.75 12 2.75 2.75 5.75-6"/></symbol>
<symbol id="dc-icon-warning" viewBox="0 0 24 24" fill="none" stroke="currentColor" stroke-width="1.75" stroke-linecap="round" stroke-linejoin="round"><path d="M10.25 4.5a2 2 0 0 1 3.5 0l7.1 12.75A2 2 0 0 1 19.1 20.25H4.9a2 2 0 0 1-1.75-3L10.25 4.5Z"/><path d="M12 8.5v5"/><circle cx="12" cy="16.75" r=".95" fill="currentColor" stroke="none"/></symbol>
<symbol id="dc-icon-error" viewBox="0 0 24 24" fill="none" stroke="currentColor" stroke-width="1.75" stroke-linecap="round" stroke-linejoin="round"><circle cx="12" cy="12" r="8.75"/><path d="m9 9 6 6m0-6-6 6"/></symbol>
<symbol id="dc-icon-info" viewBox="0 0 24 24" fill="none" stroke="currentColor" stroke-width="1.75" stroke-linecap="round" stroke-linejoin="round"><circle cx="12" cy="12" r="8.75"/><path d="M12 11v5"/><circle cx="12" cy="7.75" r=".95" fill="currentColor" stroke="none"/></symbol>
<symbol id="dc-icon-in-progress" viewBox="0 0 24 24" fill="none" stroke="currentColor" stroke-width="1.75" stroke-linecap="round" stroke-linejoin="round"><path d="M12 3.25A8.75 8.75 0 1 0 20.75 12"/><path d="M12 7v5l3.25 2"/><circle cx="18.2" cy="5.8" r="1.3" fill="currentColor" stroke="none"/></symbol>
<symbol id="dc-icon-blocked" viewBox="0 0 24 24" fill="none" stroke="currentColor" stroke-width="1.75" stroke-linecap="round" stroke-linejoin="round"><circle cx="12" cy="12" r="8.75"/><path d="m5.85 18.15 12.3-12.3"/></symbol>
<symbol id="dc-icon-chart-line" viewBox="0 0 24 24" fill="none" stroke="currentColor" stroke-width="1.75" stroke-linecap="round" stroke-linejoin="round"><path d="M4 3.75v16.5h16.5M7.5 15.75l4-4.75 3.5 2.5L20 6.75"/></symbol>
<symbol id="dc-icon-chart-bar" viewBox="0 0 24 24" fill="none" stroke="currentColor" stroke-width="1.75" stroke-linecap="round" stroke-linejoin="round"><path d="M3.75 3.75v16.5h16.5M8 16v-5M13 16V6M18 16V9"/></symbol>
<symbol id="dc-icon-chart-donut" viewBox="0 0 24 24" fill="none" stroke="currentColor" stroke-width="1.75" stroke-linecap="round" stroke-linejoin="round"><path d="M10 3.5a8.75 8.75 0 1 0 10.5 10.75h-4.75A4.25 4.25 0 1 1 10 8V3.5Z"/><path d="M14 3.5v4.75a4.25 4.25 0 0 1 2 2h4.5A8.75 8.75 0 0 0 14 3.5Z"/></symbol>
<symbol id="dc-icon-activity-grid" viewBox="0 0 24 24" fill="none" stroke="currentColor" stroke-width="1.75" stroke-linecap="round" stroke-linejoin="round"><g fill="currentColor" stroke="none"><rect x="3.25" y="3.25" width="4.5" height="4.5" rx="1.25"/><rect x="9.75" y="3.25" width="4.5" height="4.5" rx="1.25"/><rect x="16.25" y="3.25" width="4.5" height="4.5" rx="1.25"/><rect x="3.25" y="9.75" width="4.5" height="4.5" rx="1.25"/><rect x="9.75" y="9.75" width="4.5" height="4.5" rx="1.25"/><rect x="16.25" y="9.75" width="4.5" height="4.5" rx="1.25"/><rect x="3.25" y="16.25" width="4.5" height="4.5" rx="1.25"/><rect x="9.75" y="16.25" width="4.5" height="4.5" rx="1.25"/><rect x="16.25" y="16.25" width="4.5" height="4.5" rx="1.25"/></g></symbol>
<symbol id="dc-icon-kpi-card" viewBox="0 0 24 24" fill="none" stroke="currentColor" stroke-width="1.75" stroke-linecap="round" stroke-linejoin="round"><rect x="3.25" y="4.25" width="17.5" height="15.5" rx="3"/><path d="M7 8.5h4.5M7 15.75l3.75-3.5 3 2 3.5-5"/></symbol>
</svg>
